<svg id="kity_svg_6" xmlns="http://www.w3.org/2000/svg" xmlns:xlink="http://www.w3.org/1999/xlink" version="1.1" width="1818" height="891" style="background: rgb(251, 251, 251); visibility: visible;" viewBox="0 0 1818 891"><defs id="kity_defs_7"><linearGradient id="kity_linearGradient_17" x1="0" y1="0" x2="0" y2="1"><stop id="kity_stop_18" offset="0" stop-color="rgb(255, 255, 255)"></stop><stop id="kity_stop_19" offset="1" stop-color="rgb(204, 204, 204)"></stop></linearGradient><marker id="kity_marker_2" orient="auto" refX="6" refY="0" viewBox="-7 -7 14 14" markerWidth="7" markerHeight="7" markerUnits="userSpaceOnUse"><path id="kity_path_3" fill="rgb(191, 115, 148)" stroke="none" d="M6,0A6,6,0,1,1,-6,0A6,6,0,1,1,6,0"></path></marker></defs><g id="kity_g_8"><g id="minder1" text-rendering="optimize-speed"><g id="minder_connect_group1"><path id="kity_path_31" fill="none" stroke="rgb(191, 115, 148)" stroke-width="1" d="M745,450.5A60.5,356,0,0,1,805.5,94.5"></path><path id="kity_path_39" fill="none" stroke="rgb(191, 115, 148)" stroke-width="1" d="M745,450.5A60.5,69,0,0,1,805.5,381.5"></path><path id="kity_path_47" fill="none" stroke="rgb(191, 115, 148)" stroke-width="1" d="M745,450.5A60.5,258,0,0,0,805.5,708.5"></path><path id="kity_path_55" fill="none" stroke="rgb(191, 115, 148)" stroke-width="1" d="M745,450.5A60.5,357,0,0,0,805.5,807.5"></path><path id="kity_path_63" fill="none" stroke="rgb(191, 115, 148)" stroke-width="1" d="M745,450.5A60.5,53,0,0,0,684.5,397.5"></path><path id="kity_path_71" fill="none" stroke="rgb(191, 115, 148)" stroke-width="1" d="M745,450.5A60.5,11,0,0,1,684.5,461.5"></path><path id="kity_path_79" fill="none" stroke="rgb(191, 115, 148)" stroke-width="1" d="M745,450.5A60.5,53,0,0,1,684.5,503.5"></path><path id="kity_path_118" fill="none" stroke="rgb(191, 115, 148)" stroke-width="1" d="M385.5,383.5C382.5,383.5,382.5,357.5,379.5,357.5L20.5,357.5"></path><path id="kity_path_119" fill="none" stroke="rgb(191, 115, 148)" stroke-width="1" d="M385.5,383.5C382.5,383.5,382.5,383.5,379.5,383.5L137.5,383.5"></path><path id="kity_path_120" fill="none" stroke="rgb(191, 115, 148)" stroke-width="1" d="M497.5,383.5C494.5,383.5,494.5,383.5,491.5,383.5L385.5,383.5"></path><path id="kity_path_121" fill="none" stroke="rgb(191, 115, 148)" stroke-width="1" d="M570.5,397.5C567.5,397.5,567.5,383.5,564.5,383.5L497.5,383.5"></path><path id="kity_path_123" fill="none" stroke="rgb(191, 115, 148)" stroke-width="1" d="M385.5,383.5C382.5,383.5,382.5,409.5,379.5,409.5L100.5,409.5"></path><path id="kity_path_131" fill="none" stroke="rgb(191, 115, 148)" stroke-width="1" d="M570.5,397.5C567.5,397.5,567.5,435.5,564.5,435.5L251.5,435.5"></path><path id="kity_path_139" fill="none" stroke="rgb(191, 115, 148)" stroke-width="1" d="M919.5,807.5C922.5,807.5,922.5,767.5,925.5,767.5L1151.5,767.5"></path><path id="kity_path_147" fill="none" stroke="rgb(191, 115, 148)" stroke-width="1" d="M919.5,807.5C922.5,807.5,922.5,806.5,925.5,806.5L1102.5,806.5"></path><path id="kity_path_155" fill="none" stroke="rgb(191, 115, 148)" stroke-width="1" d="M1102.5,806.5C1105.5,806.5,1105.5,793.5,1108.5,793.5L1350.5,793.5"></path><path id="kity_path_163" fill="none" stroke="rgb(191, 115, 148)" stroke-width="1" d="M919.5,807.5C922.5,807.5,922.5,871.5,925.5,871.5L1798.5,871.5"></path><path id="kity_path_171" fill="none" stroke="rgb(191, 115, 148)" stroke-width="1" d="M919.5,807.5C922.5,807.5,922.5,845.5,925.5,845.5L1557.5,845.5"></path><path id="kity_path_179" fill="none" stroke="rgb(191, 115, 148)" stroke-width="1" d="M1102.5,806.5C1105.5,806.5,1105.5,819.5,1108.5,819.5L1324.5,819.5"></path><path id="kity_path_187" fill="none" stroke="rgb(191, 115, 148)" stroke-width="1" d="M904.5,708.5C907.5,708.5,907.5,720.5,910.5,720.5L1051.5,720.5"></path><path id="kity_path_195" fill="none" stroke="rgb(191, 115, 148)" stroke-width="1" d="M1051.5,720.5C1054.5,720.5,1054.5,707.5,1057.5,707.5L1214.5,707.5"></path><path id="kity_path_203" fill="none" stroke="rgb(191, 115, 148)" stroke-width="1" d="M1051.5,720.5C1054.5,720.5,1054.5,733.5,1057.5,733.5L1343.5,733.5"></path><path id="kity_path_211" fill="none" stroke="rgb(191, 115, 148)" stroke-width="1" d="M919.5,94.5C922.5,94.5,922.5,41.5,925.5,41.5L1653.5,41.5"></path><path id="kity_path_219" fill="none" stroke="rgb(191, 115, 148)" stroke-width="1" d="M919.5,94.5C922.5,94.5,922.5,67.5,925.5,67.5L1678.5,67.5"></path><path id="kity_path_227" fill="none" stroke="rgb(191, 115, 148)" stroke-width="1" d="M919.5,94.5C922.5,94.5,922.5,93.5,925.5,93.5L1498.5,93.5"></path><path id="kity_path_235" fill="none" stroke="rgb(191, 115, 148)" stroke-width="1" d="M919.5,94.5C922.5,94.5,922.5,119.5,925.5,119.5L1439.5,119.5"></path><path id="kity_path_243" fill="none" stroke="rgb(191, 115, 148)" stroke-width="1" d="M919.5,94.5C922.5,94.5,922.5,145.5,925.5,145.5L1609.5,145.5"></path><path id="kity_path_251" fill="none" stroke="rgb(191, 115, 148)" stroke-width="1" d="M919.5,94.5C922.5,94.5,922.5,171.5,925.5,171.5L1049.5,171.5"></path><path id="kity_path_267" fill="none" stroke="rgb(191, 115, 148)" stroke-width="1" d="M905.5,381.5C908.5,381.5,908.5,218.5,911.5,218.5L1100.5,218.5"></path><path id="kity_path_275" fill="none" stroke="rgb(191, 115, 148)" stroke-width="1" d="M1100.5,218.5C1103.5,218.5,1103.5,205.5,1106.5,205.5L1296.5,205.5"></path><path id="kity_path_283" fill="none" stroke="rgb(191, 115, 148)" stroke-width="1" d="M1100.5,218.5C1103.5,218.5,1103.5,231.5,1106.5,231.5L1380.5,231.5"></path><path id="kity_path_291" fill="none" stroke="rgb(191, 115, 148)" stroke-width="1" d="M905.5,381.5C908.5,381.5,908.5,283.5,911.5,283.5L1115.5,283.5"></path><path id="kity_path_299" fill="none" stroke="rgb(191, 115, 148)" stroke-width="1" d="M1115.5,283.5C1118.5,283.5,1118.5,257.5,1121.5,257.5L1274.5,257.5"></path><path id="kity_path_307" fill="none" stroke="rgb(191, 115, 148)" stroke-width="1" d="M1115.5,283.5C1118.5,283.5,1118.5,283.5,1121.5,283.5L1294.5,283.5"></path><path id="kity_path_315" fill="none" stroke="rgb(191, 115, 148)" stroke-width="1" d="M1115.5,283.5C1118.5,283.5,1118.5,309.5,1121.5,309.5L1323.5,309.5"></path><path id="kity_path_323" fill="none" stroke="rgb(191, 115, 148)" stroke-width="1" d="M905.5,381.5C908.5,381.5,908.5,361.5,911.5,361.5L1041.5,361.5"></path><path id="kity_path_331" fill="none" stroke="rgb(191, 115, 148)" stroke-width="1" d="M1041.5,361.5C1044.5,361.5,1044.5,335.5,1047.5,335.5L1129.5,335.5"></path><path id="kity_path_339" fill="none" stroke="rgb(191, 115, 148)" stroke-width="1" d="M1041.5,361.5C1044.5,361.5,1044.5,387.5,1047.5,387.5L1177.5,387.5"></path><path id="kity_path_347" fill="none" stroke="rgb(191, 115, 148)" stroke-width="1" d="M1177.5,387.5C1180.5,387.5,1180.5,361.5,1183.5,361.5L1604.5,361.5"></path><path id="kity_path_355" fill="none" stroke="rgb(191, 115, 148)" stroke-width="1" d="M1177.5,387.5C1180.5,387.5,1180.5,387.5,1183.5,387.5L1613.5,387.5"></path><path id="kity_path_363" fill="none" stroke="rgb(191, 115, 148)" stroke-width="1" d="M1177.5,387.5C1180.5,387.5,1180.5,413.5,1183.5,413.5L1508.5,413.5"></path><path id="kity_path_371" fill="none" stroke="rgb(191, 115, 148)" stroke-width="1" d="M905.5,381.5C908.5,381.5,908.5,569.5,911.5,569.5L1055.5,569.5"></path><path id="kity_path_379" fill="none" stroke="rgb(191, 115, 148)" stroke-width="1" d="M1055.5,569.5C1058.5,569.5,1058.5,465.5,1061.5,465.5L1161.5,465.5"></path><path id="kity_path_387" fill="none" stroke="rgb(191, 115, 148)" stroke-width="1" d="M1161.5,465.5C1164.5,465.5,1164.5,439.5,1167.5,439.5L1297.5,439.5"></path><path id="kity_path_395" fill="none" stroke="rgb(191, 115, 148)" stroke-width="1" d="M1161.5,465.5C1164.5,465.5,1164.5,465.5,1167.5,465.5L1261.5,465.5"></path><path id="kity_path_403" fill="none" stroke="rgb(191, 115, 148)" stroke-width="1" d="M1161.5,465.5C1164.5,465.5,1164.5,491.5,1167.5,491.5L1248.5,491.5"></path><path id="kity_path_411" fill="none" stroke="rgb(191, 115, 148)" stroke-width="1" d="M1055.5,569.5C1058.5,569.5,1058.5,530.5,1061.5,530.5L1208.5,530.5"></path><path id="kity_path_419" fill="none" stroke="rgb(191, 115, 148)" stroke-width="1" d="M1208.5,530.5C1211.5,530.5,1211.5,517.5,1214.5,517.5L1363.5,517.5"></path><path id="kity_path_427" fill="none" stroke="rgb(191, 115, 148)" stroke-width="1" d="M1208.5,530.5C1211.5,530.5,1211.5,543.5,1214.5,543.5L1318.5,543.5"></path><path id="kity_path_435" fill="none" stroke="rgb(191, 115, 148)" stroke-width="1" d="M1055.5,569.5C1058.5,569.5,1058.5,569.5,1061.5,569.5L1173.5,569.5"></path><path id="kity_path_443" fill="none" stroke="rgb(191, 115, 148)" stroke-width="1" d="M1173.5,569.5C1176.5,569.5,1176.5,569.5,1179.5,569.5L1496.5,569.5"></path><path id="kity_path_451" fill="none" stroke="rgb(191, 115, 148)" stroke-width="1" d="M1055.5,569.5C1058.5,569.5,1058.5,608.5,1061.5,608.5L1198.5,608.5"></path><path id="kity_path_459" fill="none" stroke="rgb(191, 115, 148)" stroke-width="1" d="M1198.5,608.5C1201.5,608.5,1201.5,595.5,1204.5,595.5L1274.5,595.5"></path><path id="kity_path_467" fill="none" stroke="rgb(191, 115, 148)" stroke-width="1" d="M1198.5,608.5C1201.5,608.5,1201.5,621.5,1204.5,621.5L1262.5,621.5"></path><path id="kity_path_475" fill="none" stroke="rgb(191, 115, 148)" stroke-width="1" d="M1055.5,569.5C1058.5,569.5,1058.5,647.5,1061.5,647.5L1125.5,647.5"></path><path id="kity_path_483" fill="none" stroke="rgb(191, 115, 148)" stroke-width="1" d="M1055.5,569.5C1058.5,569.5,1058.5,673.5,1061.5,673.5L1305.5,673.5"></path></g><g id="minder_node1"><path id="node_outline1" fill="rgb(191, 115, 148)" stroke="rgb(191, 115, 148)" d="M705.5,436.5h79a5,5,0,0,1,5,5v18a5,5,0,0,1,-5,5h-79a5,5,0,0,1,-5,-5v-18a5,5,0,0,1,5,-5z" stroke-width="3"></path><g id="node_text1" fill="white"><text id="kity_text_22" text-rendering="inherit" font-size="16" dy=".8em" y="440.09999990463257" x="712.5">专项测试</text></g></g><g id="kity_g_12" display="none"><path id="kity_path_13" fill="none" stroke="none" d="M712.5,450.5h0v0h0z"></path></g><g id="kity_g_14" display="none"><path id="kity_path_15" fill="none" stroke="none" d="M712.5,450.5h0v0h0z"></path><path id="kity_path_16" fill="none" stroke="none"></path></g><g id="minder_node2"><g id="node_expander1" style="cursor: pointer;"><path id="kity_path_36" fill="white" stroke="gray" d="M806.5,94.5A6,6,0,1,1,794.5,94.5A6,6,0,1,1,806.5,94.5"></path><path id="kity_path_37" fill="none" stroke="gray" d="M796,94.5L805,94.5"></path></g><path id="node_outline2" fill="rgb(246, 238, 242)" stroke="rgb(191, 115, 148)" d="M810.5,81.5h106a3,3,0,0,1,3,3v20a3,3,0,0,1,-3,3h-106a3,3,0,0,1,-3,-3v-20a3,3,0,0,1,3,-3z" stroke-width="1"></path><g id="node_text2" fill="black"><text id="kity_text_33" text-rendering="inherit" font-size="14" dy=".8em" y="85.40000009536743" x="827.5">兼容性测试</text></g></g><g id="minder_node3"><g id="node_expander2" style="cursor: pointer;"><path id="kity_path_44" fill="white" stroke="gray" d="M806.5,381.5A6,6,0,1,1,794.5,381.5A6,6,0,1,1,806.5,381.5"></path><path id="kity_path_45" fill="none" stroke="gray" d="M796,381.5L805,381.5"></path></g><path id="node_outline3" fill="rgb(246, 238, 242)" stroke="rgb(191, 115, 148)" d="M810.5,368.5h92a3,3,0,0,1,3,3v20a3,3,0,0,1,-3,3h-92a3,3,0,0,1,-3,-3v-20a3,3,0,0,1,3,-3z" stroke-width="1"></path><g id="node_text3" fill="black"><text id="kity_text_41" text-rendering="inherit" font-size="14" dy=".8em" y="372.40000009536743" x="827.5">流量测试</text></g></g><g id="minder_node4"><g id="node_expander3" style="cursor: pointer;"><path id="kity_path_52" fill="white" stroke="gray" d="M806.5,708.5A6,6,0,1,1,794.5,708.5A6,6,0,1,1,806.5,708.5"></path><path id="kity_path_53" fill="none" stroke="gray" d="M796,708.5L805,708.5"></path></g><path id="node_outline4" fill="rgb(246, 238, 242)" stroke="rgb(191, 115, 148)" d="M810.5,695.5h91a3,3,0,0,1,3,3v20a3,3,0,0,1,-3,3h-91a3,3,0,0,1,-3,-3v-20a3,3,0,0,1,3,-3z" stroke-width="1"></path><g id="node_text4" fill="black"><text id="kity_text_49" text-rendering="inherit" font-size="14" dy=".8em" y="699.4000000953674" x="827.5">电量测试</text></g></g><g id="minder_node5"><g id="node_expander4" style="cursor: pointer;"><path id="kity_path_60" fill="white" stroke="gray" d="M806.5,807.5A6,6,0,1,1,794.5,807.5A6,6,0,1,1,806.5,807.5"></path><path id="kity_path_61" fill="none" stroke="gray" d="M796,807.5L805,807.5"></path></g><path id="node_outline5" fill="rgb(246, 238, 242)" stroke="rgb(191, 115, 148)" d="M810.5,794.5h106a3,3,0,0,1,3,3v20a3,3,0,0,1,-3,3h-106a3,3,0,0,1,-3,-3v-20a3,3,0,0,1,3,-3z" stroke-width="1"></path><g id="node_text5" fill="black"><text id="kity_text_57" text-rendering="inherit" font-size="14" dy=".8em" y="798.4000000953674" x="827.5">弱网络测试</text></g></g><g id="minder_node6" opacity="1"><g id="node_expander5" style="cursor: pointer;"><path id="kity_path_68" fill="white" stroke="gray" d="M695.5,397.5A6,6,0,1,1,683.5,397.5A6,6,0,1,1,695.5,397.5"></path><path id="kity_path_69" fill="none" stroke="gray" d="M685,397.5L694,397.5"></path></g><path id="node_outline6" fill="rgb(246, 238, 242)" stroke="rgb(191, 115, 148)" d="M573.5,384.5h106a3,3,0,0,1,3,3v20a3,3,0,0,1,-3,3h-106a3,3,0,0,1,-3,-3v-20a3,3,0,0,1,3,-3z" stroke-width="1"></path><g id="node_text6" fill="black"><text id="kity_text_65" text-rendering="inherit" font-size="14" dy=".8em" y="388.40000009536743" x="590.5">稳定性测试</text></g></g><g id="minder_node7"><g id="node_expander6" style="cursor: pointer;" display="none"><path id="kity_path_76" fill="white" stroke="gray" d="M695.5,461.5A6,6,0,1,1,683.5,461.5A6,6,0,1,1,695.5,461.5"></path><path id="kity_path_77" fill="none" stroke="gray"></path></g><path id="node_outline7" fill="rgb(246, 238, 242)" stroke="rgb(191, 115, 148)" d="M587.5,448.5h92a3,3,0,0,1,3,3v20a3,3,0,0,1,-3,3h-92a3,3,0,0,1,-3,-3v-20a3,3,0,0,1,3,-3z" stroke-width="1"></path><g id="node_text7" fill="black"><text id="kity_text_73" text-rendering="inherit" font-size="14" dy=".8em" y="452.40000009536743" x="604.5">安全测试</text></g></g><g id="minder_node8"><g id="node_expander7" style="cursor: pointer;" display="none"><path id="kity_path_84" fill="white" stroke="gray" d="M695.5,503.5A6,6,0,1,1,683.5,503.5A6,6,0,1,1,695.5,503.5"></path><path id="kity_path_85" fill="none" stroke="gray"></path></g><path id="node_outline8" fill="rgb(246, 238, 242)" stroke="rgb(191, 115, 148)" d="M545.5,490.5h134a3,3,0,0,1,3,3v20a3,3,0,0,1,-3,3h-134a3,3,0,0,1,-3,-3v-20a3,3,0,0,1,3,-3z" stroke-width="1"></path><g id="node_text8" fill="black"><text id="kity_text_81" text-rendering="inherit" font-size="14" dy=".8em" y="494.40000009536743" x="562.5">环境相关的测试</text></g></g><g id="minder_node11"><g id="node_expander10" style="cursor: pointer;" display="none"><path id="kity_path_108" fill="white" stroke="gray" d="M381.5,345.5A6,6,0,1,1,369.5,345.5A6,6,0,1,1,381.5,345.5"></path><path id="kity_path_109" fill="none" stroke="gray"></path></g><path id="node_outline11" fill="none" stroke="none" d="M25.5,336.5h339a5,5,0,0,1,5,5v8a5,5,0,0,1,-5,5h-339a5,5,0,0,1,-5,-5v-8a5,5,0,0,1,5,-5z" stroke-width="3"></path><g id="node_text11" fill="black"><text id="kity_text_105" text-rendering="inherit" font-size="12" dy=".8em" y="337.7000000476837" x="25.5">1、输入事件5秒内未响应完成，例如点击点击屏幕，按键等操作</text></g></g><g id="minder_node12"><g id="node_expander11" style="cursor: pointer;" display="none"><path id="kity_path_116" fill="white" stroke="gray" d="M381.5,371.5A6,6,0,1,1,369.5,371.5A6,6,0,1,1,381.5,371.5"></path><path id="kity_path_117" fill="none" stroke="gray"></path></g><path id="node_outline12" fill="none" stroke="none" d="M142.5,362.5h222a5,5,0,0,1,5,5v8a5,5,0,0,1,-5,5h-222a5,5,0,0,1,-5,-5v-8a5,5,0,0,1,5,-5z" stroke-width="3"></path><g id="node_text12" fill="black"><text id="kity_text_113" text-rendering="inherit" font-size="12" dy=".8em" y="363.7000000476837" x="142.5">2、BroadcastReceiver10秒内未执行完毕</text></g></g><g id="minder_node10"><g id="node_expander9" style="cursor: pointer;"><path id="kity_path_100" fill="white" stroke="gray" d="M493.5,371.5A6,6,0,1,1,481.5,371.5A6,6,0,1,1,493.5,371.5"></path><path id="kity_path_101" fill="none" stroke="gray" d="M483,371.5L492,371.5"></path></g><path id="node_outline10" fill="none" stroke="none" d="M390.5,362.5h86a5,5,0,0,1,5,5v8a5,5,0,0,1,-5,5h-86a5,5,0,0,1,-5,-5v-8a5,5,0,0,1,5,-5z" stroke-width="3"></path><g id="node_text10" fill="black"><text id="kity_text_97" text-rendering="inherit" font-size="12" dy=".8em" y="363.7000000476837" x="390.5">Android的ANR</text></g></g><g id="minder_node9"><g id="node_expander8" style="cursor: pointer;"><path id="kity_path_92" fill="white" stroke="gray" d="M566.5,371.5A6,6,0,1,1,554.5,371.5A6,6,0,1,1,566.5,371.5"></path><path id="kity_path_93" fill="none" stroke="gray" d="M556,371.5L565,371.5"></path></g><path id="node_outline9" fill="none" stroke="none" d="M502.5,362.5h47a5,5,0,0,1,5,5v8a5,5,0,0,1,-5,5h-47a5,5,0,0,1,-5,-5v-8a5,5,0,0,1,5,-5z" stroke-width="3"></path><g id="node_text9" fill="black"><text id="kity_text_89" text-rendering="inherit" font-size="12" dy=".8em" y="363.7000000476837" x="502.5">Monkey</text></g></g><g id="minder_node13"><g id="node_expander12" style="cursor: pointer;" display="none"><path id="kity_path_128" fill="white" stroke="gray" d="M381.5,397.5A6,6,0,1,1,369.5,397.5A6,6,0,1,1,381.5,397.5"></path><path id="kity_path_129" fill="none" stroke="gray"></path></g><path id="node_outline13" fill="none" stroke="none" d="M105.5,388.5h259a5,5,0,0,1,5,5v8a5,5,0,0,1,-5,5h-259a5,5,0,0,1,-5,-5v-8a5,5,0,0,1,5,-5z" stroke-width="3"></path><g id="node_text13" fill="black"><text id="kity_text_125" text-rendering="inherit" font-size="12" dy=".8em" y="389.7000000476837" x="105.5">发生ANR,要提供给开发人员测试步骤和现场数据</text></g></g><g id="minder_node14"><g id="node_expander13" style="cursor: pointer;" display="none"><path id="kity_path_136" fill="white" stroke="gray" d="M566.5,423.5A6,6,0,1,1,554.5,423.5A6,6,0,1,1,566.5,423.5"></path><path id="kity_path_137" fill="none" stroke="gray"></path></g><path id="node_outline14" fill="none" stroke="none" d="M256.5,414.5h293a5,5,0,0,1,5,5v8a5,5,0,0,1,-5,5h-293a5,5,0,0,1,-5,-5v-8a5,5,0,0,1,5,-5z" stroke-width="3"></path><g id="node_text14" fill="black"><text id="kity_text_133" text-rendering="inherit" font-size="12" dy=".8em" y="415.7000000476837" x="256.5">借助模糊测试的思路和APP UI自动化的技术来做生测试</text></g></g><g id="minder_node15"><g id="node_expander14" style="cursor: pointer;" display="none"><path id="kity_path_144" fill="white" stroke="gray" d="M935.5,755.5A6,6,0,1,1,923.5,755.5A6,6,0,1,1,935.5,755.5"></path><path id="kity_path_145" fill="none" stroke="gray"></path></g><path id="node_outline15" fill="none" stroke="none" d="M940.5,746.5h206a5,5,0,0,1,5,5v8a5,5,0,0,1,-5,5h-206a5,5,0,0,1,-5,-5v-8a5,5,0,0,1,5,-5z" stroke-width="3"></path><g id="node_text15" fill="black"><text id="kity_text_141" text-rendering="inherit" font-size="12" dy=".8em" y="747.7000000476837" x="940.5">一、借助手机自带的网络状况模拟工具</text></g></g><g id="minder_node16"><g id="node_expander15" style="cursor: pointer;"><path id="kity_path_152" fill="white" stroke="gray" d="M935.5,794.5A6,6,0,1,1,923.5,794.5A6,6,0,1,1,935.5,794.5"></path><path id="kity_path_153" fill="none" stroke="gray" d="M925,794.5L934,794.5"></path></g><path id="node_outline16" fill="none" stroke="none" d="M940.5,785.5h157a5,5,0,0,1,5,5v8a5,5,0,0,1,-5,5h-157a5,5,0,0,1,-5,-5v-8a5,5,0,0,1,5,-5z" stroke-width="3"></path><g id="node_text16" fill="black"><text id="kity_text_149" text-rendering="inherit" font-size="12" dy=".8em" y="786.7000000476837" x="940.5">二、基于代理的弱网络的模拟</text></g></g><g id="minder_node17"><g id="node_expander16" style="cursor: pointer;" display="none"><path id="kity_path_160" fill="white" stroke="gray" d="M1118.5,781.5A6,6,0,1,1,1106.5,781.5A6,6,0,1,1,1118.5,781.5"></path><path id="kity_path_161" fill="none" stroke="gray"></path></g><path id="node_outline17" fill="none" stroke="none" d="M1123.5,772.5h222a5,5,0,0,1,5,5v8a5,5,0,0,1,-5,5h-222a5,5,0,0,1,-5,-5v-8a5,5,0,0,1,5,-5z" stroke-width="3"></path><g id="node_text17" fill="black"><text id="kity_text_157" text-rendering="inherit" font-size="12" dy=".8em" y="773.7000000476837" x="1123.5">Windows下的Network Delay Simulator</text></g></g><g id="minder_node18"><g id="node_expander17" style="cursor: pointer;" display="none"><path id="kity_path_168" fill="white" stroke="gray" d="M935.5,859.5A6,6,0,1,1,923.5,859.5A6,6,0,1,1,935.5,859.5"></path><path id="kity_path_169" fill="none" stroke="gray"></path></g><path id="node_outline18" fill="none" stroke="none" d="M940.5,850.5h853a5,5,0,0,1,5,5v8a5,5,0,0,1,-5,5h-853a5,5,0,0,1,-5,-5v-8a5,5,0,0,1,5,-5z" stroke-width="3"></path><g id="node_text18" fill="black"><text id="kity_text_165" text-rendering="inherit" font-size="12" dy=".8em" y="851.7000000476837" x="940.5">只是对弱网络情况的简单模拟，因为实际情况更加复杂和多样，上面的模拟中，参数是固定的，而在实际中是多变的，另一方面，以上也没有包含网络类型切换，</text></g></g><g id="minder_node19"><g id="node_expander18" style="cursor: pointer;" display="none"><path id="kity_path_176" fill="white" stroke="gray" d="M935.5,833.5A6,6,0,1,1,923.5,833.5A6,6,0,1,1,935.5,833.5"></path><path id="kity_path_177" fill="none" stroke="gray"></path></g><path id="node_outline19" fill="none" stroke="none" d="M940.5,824.5h612a5,5,0,0,1,5,5v8a5,5,0,0,1,-5,5h-612a5,5,0,0,1,-5,-5v-8a5,5,0,0,1,5,-5z" stroke-width="3"></path><g id="node_text19" fill="black"><text id="kity_text_173" text-rendering="inherit" font-size="12" dy=".8em" y="825.7000000476837" x="940.5">通过弱网络测试可以发现很多APP层面的问题，包括异常处理不当导致的应用崩溃，以及各种用户体验方面的问题。</text></g></g><g id="minder_node20"><g id="node_expander19" style="cursor: pointer;" display="none"><path id="kity_path_184" fill="white" stroke="gray" d="M1118.5,807.5A6,6,0,1,1,1106.5,807.5A6,6,0,1,1,1118.5,807.5"></path><path id="kity_path_185" fill="none" stroke="gray"></path></g><path id="node_outline20" fill="none" stroke="none" d="M1123.5,798.5h196a5,5,0,0,1,5,5v8a5,5,0,0,1,-5,5h-196a5,5,0,0,1,-5,-5v-8a5,5,0,0,1,5,-5z" stroke-width="3"></path><g id="node_text20" fill="black"><text id="kity_text_181" text-rendering="inherit" font-size="12" dy=".8em" y="799.7000000476837" x="1123.5">Mac下的Network Link Conditioner</text></g></g><g id="minder_node21"><g id="node_expander20" style="cursor: pointer;"><path id="kity_path_192" fill="white" stroke="gray" d="M920.5,708.5A6,6,0,1,1,908.5,708.5A6,6,0,1,1,920.5,708.5"></path><path id="kity_path_193" fill="none" stroke="gray" d="M910,708.5L919,708.5"></path></g><path id="node_outline21" fill="none" stroke="none" d="M925.5,699.5h121a5,5,0,0,1,5,5v8a5,5,0,0,1,-5,5h-121a5,5,0,0,1,-5,-5v-8a5,5,0,0,1,5,-5z" stroke-width="3"></path><g id="node_text21" fill="black"><text id="kity_text_189" text-rendering="inherit" font-size="12" dy=".8em" y="700.7000000476837" x="925.5">Android电量测试方法</text></g></g><g id="minder_node22"><g id="node_expander21" style="cursor: pointer;" display="none"><path id="kity_path_200" fill="white" stroke="gray" d="M1067.5,695.5A6,6,0,1,1,1055.5,695.5A6,6,0,1,1,1067.5,695.5"></path><path id="kity_path_201" fill="none" stroke="gray"></path></g><path id="node_outline22" fill="none" stroke="none" d="M1072.5,686.5h137a5,5,0,0,1,5,5v8a5,5,0,0,1,-5,5h-137a5,5,0,0,1,-5,-5v-8a5,5,0,0,1,5,-5z" stroke-width="3"></path><g id="node_text22" fill="black"><text id="kity_text_197" text-rendering="inherit" font-size="12" dy=".8em" y="687.7000000476837" x="1072.5">一、基于硬件设备的方法&#xa0;</text></g></g><g id="minder_node23"><g id="node_expander22" style="cursor: pointer;" display="none"><path id="kity_path_208" fill="white" stroke="gray" d="M1067.5,721.5A6,6,0,1,1,1055.5,721.5A6,6,0,1,1,1067.5,721.5"></path><path id="kity_path_209" fill="none" stroke="gray"></path></g><path id="node_outline23" fill="none" stroke="none" d="M1072.5,712.5h266a5,5,0,0,1,5,5v8a5,5,0,0,1,-5,5h-266a5,5,0,0,1,-5,-5v-8a5,5,0,0,1,5,-5z" stroke-width="3"></path><g id="node_text23" fill="black"><text id="kity_text_205" text-rendering="inherit" font-size="12" dy=".8em" y="713.7000000476837" x="1072.5">二、基于GSam Batter Monitor Pro查看电量消耗</text></g></g><g id="minder_node24" opacity="1"><g id="node_expander23" style="cursor: pointer;" display="none"><path id="kity_path_216" fill="white" stroke="gray" d="M935.5,29.5A6,6,0,1,1,923.5,29.5A6,6,0,1,1,935.5,29.5"></path><path id="kity_path_217" fill="none" stroke="gray"></path></g><path id="node_outline24" fill="none" stroke="none" d="M940.5,20.5h708a5,5,0,0,1,5,5v8a5,5,0,0,1,-5,5h-708a5,5,0,0,1,-5,-5v-8a5,5,0,0,1,5,-5z" stroke-width="3"></path><g id="node_text24" fill="black"><text id="kity_text_213" text-rendering="inherit" font-size="12" dy=".8em" y="21.700000047683716" x="940.5">基本的做法就是根据APP用户的特征挑选出要覆盖的范围，然后购买相关的测试设备，在功能测试中抽出一部分时间来做兼容性测试。</text></g></g><g id="minder_node25"><g id="node_expander24" style="cursor: pointer;" display="none"><path id="kity_path_224" fill="white" stroke="gray" d="M935.5,55.5A6,6,0,1,1,923.5,55.5A6,6,0,1,1,935.5,55.5"></path><path id="kity_path_225" fill="none" stroke="gray"></path></g><path id="node_outline25" fill="none" stroke="none" d="M940.5,46.5h733a5,5,0,0,1,5,5v8a5,5,0,0,1,-5,5h-733a5,5,0,0,1,-5,-5v-8a5,5,0,0,1,5,-5z" stroke-width="3"></path><g id="node_text25" fill="black"><text id="kity_text_221" text-rendering="inherit" font-size="12" dy=".8em" y="47.700000047683716" x="940.5">实际中为了效率，不太可能逐个测试用例，在每个兼容性的维度来执行，因为功能用例直接乘以设备数，其结果是无法承受的测试工作量，</text></g></g><g id="minder_node26"><g id="node_expander25" style="cursor: pointer;" display="none"><path id="kity_path_232" fill="white" stroke="gray" d="M935.5,81.5A6,6,0,1,1,923.5,81.5A6,6,0,1,1,935.5,81.5"></path><path id="kity_path_233" fill="none" stroke="gray"></path></g><path id="node_outline26" fill="none" stroke="none" d="M940.5,72.5h553a5,5,0,0,1,5,5v8a5,5,0,0,1,-5,5h-553a5,5,0,0,1,-5,-5v-8a5,5,0,0,1,5,-5z" stroke-width="3"></path><g id="node_text26" fill="black"><text id="kity_text_229" text-rendering="inherit" font-size="12" dy=".8em" y="73.70000004768372" x="940.5">通常我们会选择在少数主流设备上执行全量的用例，在其他兼容性范围内的设备上覆盖主要功能的用例。</text></g></g><g id="minder_node27"><g id="node_expander26" style="cursor: pointer;" display="none"><path id="kity_path_240" fill="white" stroke="gray" d="M935.5,107.5A6,6,0,1,1,923.5,107.5A6,6,0,1,1,935.5,107.5"></path><path id="kity_path_241" fill="none" stroke="gray"></path></g><path id="node_outline27" fill="none" stroke="none" d="M940.5,98.5h494a5,5,0,0,1,5,5v8a5,5,0,0,1,-5,5h-494a5,5,0,0,1,-5,-5v-8a5,5,0,0,1,5,-5z" stroke-width="3"></path><g id="node_text27" fill="black"><text id="kity_text_237" text-rendering="inherit" font-size="12" dy=".8em" y="99.70000004768372" x="940.5">项目执行过程中为了更好地跟踪和了解进展，可以通过一个表格的形式来维护不同功能点的兼</text></g></g><g id="minder_node28"><g id="node_expander27" style="cursor: pointer;" display="none"><path id="kity_path_248" fill="white" stroke="gray" d="M935.5,133.5A6,6,0,1,1,923.5,133.5A6,6,0,1,1,935.5,133.5"></path><path id="kity_path_249" fill="none" stroke="gray"></path></g><path id="node_outline28" fill="none" stroke="none" d="M940.5,124.5h664a5,5,0,0,1,5,5v8a5,5,0,0,1,-5,5h-664a5,5,0,0,1,-5,-5v-8a5,5,0,0,1,5,-5z" stroke-width="3"></path><g id="node_text28" fill="black"><text id="kity_text_245" text-rendering="inherit" font-size="12" dy=".8em" y="125.70000004768372" x="940.5">容性测试情况。在BUG管理方面，可以增加对应的选项，在测试人员提交BUG的时候记录，以便以后进行统计和经验的总结。</text></g></g><g id="minder_node29"><g id="node_expander28" style="cursor: pointer;" display="none"><path id="kity_path_256" fill="white" stroke="gray" d="M935.5,159.5A6,6,0,1,1,923.5,159.5A6,6,0,1,1,935.5,159.5"></path><path id="kity_path_257" fill="none" stroke="gray"></path></g><path id="node_outline29" fill="none" stroke="none" d="M940.5,150.5h104a5,5,0,0,1,5,5v8a5,5,0,0,1,-5,5h-104a5,5,0,0,1,-5,-5v-8a5,5,0,0,1,5,-5z" stroke-width="3"></path><g id="node_text29" fill="black"><text id="kity_text_253" text-rendering="inherit" font-size="12" dy=".8em" y="151.70000004768372" x="940.5">2、利用云测试平台</text></g></g><g id="minder_node31"><g id="node_expander30" style="cursor: pointer;"><path id="kity_path_272" fill="white" stroke="gray" d="M921.5,206.5A6,6,0,1,1,909.5,206.5A6,6,0,1,1,921.5,206.5"></path><path id="kity_path_273" fill="none" stroke="gray" d="M911,206.5L920,206.5"></path></g><path id="node_outline31" fill="none" stroke="none" d="M926.5,197.5h169a5,5,0,0,1,5,5v8a5,5,0,0,1,-5,5h-169a5,5,0,0,1,-5,-5v-8a5,5,0,0,1,5,-5z" stroke-width="3"></path><g id="node_text31" fill="black"><text id="kity_text_269" text-rendering="inherit" font-size="12" dy=".8em" y="198.70000004768372" x="926.5">以用户使用的相关性角度来分类</text></g></g><g id="minder_node32"><g id="node_expander31" style="cursor: pointer;" display="none"><path id="kity_path_280" fill="white" stroke="gray" d="M1116.5,193.5A6,6,0,1,1,1104.5,193.5A6,6,0,1,1,1116.5,193.5"></path><path id="kity_path_281" fill="none" stroke="gray"></path></g><path id="node_outline32" fill="none" stroke="none" d="M1121.5,184.5h170a5,5,0,0,1,5,5v8a5,5,0,0,1,-5,5h-170a5,5,0,0,1,-5,-5v-8a5,5,0,0,1,5,-5z" stroke-width="3"></path><g id="node_text32" fill="black"><text id="kity_text_277" text-rendering="inherit" font-size="12" dy=".8em" y="185.70000004768372" x="1121.5">用户的操作直接导致流量的消耗</text></g></g><g id="minder_node33"><g id="node_expander32" style="cursor: pointer;" display="none"><path id="kity_path_288" fill="white" stroke="gray" d="M1116.5,219.5A6,6,0,1,1,1104.5,219.5A6,6,0,1,1,1116.5,219.5"></path><path id="kity_path_289" fill="none" stroke="gray"></path></g><path id="node_outline33" fill="none" stroke="none" d="M1121.5,210.5h254a5,5,0,0,1,5,5v8a5,5,0,0,1,-5,5h-254a5,5,0,0,1,-5,-5v-8a5,5,0,0,1,5,-5z" stroke-width="3"></path><g id="node_text33" fill="black"><text id="kity_text_285" text-rendering="inherit" font-size="12" dy=".8em" y="211.70000004768372" x="1121.5">后台，即在用户没有直接使用情况下的流量消耗</text></g></g><g id="minder_node34"><g id="node_expander33" style="cursor: pointer;"><path id="kity_path_296" fill="white" stroke="gray" d="M921.5,271.5A6,6,0,1,1,909.5,271.5A6,6,0,1,1,921.5,271.5"></path><path id="kity_path_297" fill="none" stroke="gray" d="M911,271.5L920,271.5"></path></g><path id="node_outline34" fill="none" stroke="none" d="M926.5,262.5h184a5,5,0,0,1,5,5v8a5,5,0,0,1,-5,5h-184a5,5,0,0,1,-5,-5v-8a5,5,0,0,1,5,-5z" stroke-width="3"></path><g id="node_text34" fill="black"><text id="kity_text_293" text-rendering="inherit" font-size="12" dy=".8em" y="263.7000000476837" x="926.5">Android App特有的流量测试方法</text></g></g><g id="minder_node35"><g id="node_expander34" style="cursor: pointer;" display="none"><path id="kity_path_304" fill="white" stroke="gray" d="M1131.5,245.5A6,6,0,1,1,1119.5,245.5A6,6,0,1,1,1131.5,245.5"></path><path id="kity_path_305" fill="none" stroke="gray"></path></g><path id="node_outline35" fill="none" stroke="none" d="M1136.5,236.5h133a5,5,0,0,1,5,5v8a5,5,0,0,1,-5,5h-133a5,5,0,0,1,-5,-5v-8a5,5,0,0,1,5,-5z" stroke-width="3"></path><g id="node_text35" fill="black"><text id="kity_text_301" text-rendering="inherit" font-size="12" dy=".8em" y="237.70000004768372" x="1136.5">基于系统自带的统计功能</text></g></g><g id="minder_node36"><g id="node_expander35" style="cursor: pointer;" display="none"><path id="kity_path_312" fill="white" stroke="gray" d="M1131.5,271.5A6,6,0,1,1,1119.5,271.5A6,6,0,1,1,1131.5,271.5"></path><path id="kity_path_313" fill="none" stroke="gray"></path></g><path id="node_outline36" fill="none" stroke="none" d="M1136.5,262.5h153a5,5,0,0,1,5,5v8a5,5,0,0,1,-5,5h-153a5,5,0,0,1,-5,-5v-8a5,5,0,0,1,5,-5z" stroke-width="3"></path><g id="node_text36" fill="black"><text id="kity_text_309" text-rendering="inherit" font-size="12" dy=".8em" y="263.7000000476837" x="1136.5">通过系统API来获取流量数据</text></g></g><g id="minder_node37"><g id="node_expander36" style="cursor: pointer;" display="none"><path id="kity_path_320" fill="white" stroke="gray" d="M1131.5,297.5A6,6,0,1,1,1119.5,297.5A6,6,0,1,1,1131.5,297.5"></path><path id="kity_path_321" fill="none" stroke="gray"></path></g><path id="node_outline37" fill="none" stroke="none" d="M1136.5,288.5h182a5,5,0,0,1,5,5v8a5,5,0,0,1,-5,5h-182a5,5,0,0,1,-5,-5v-8a5,5,0,0,1,5,-5z" stroke-width="3"></path><g id="node_text37" fill="black"><text id="kity_text_317" text-rendering="inherit" font-size="12" dy=".8em" y="289.7000000476837" x="1136.5">App内部通过代码统计接口数据量</text></g></g><g id="minder_node38"><g id="node_expander37" style="cursor: pointer;"><path id="kity_path_328" fill="white" stroke="gray" d="M921.5,349.5A6,6,0,1,1,909.5,349.5A6,6,0,1,1,921.5,349.5"></path><path id="kity_path_329" fill="none" stroke="gray" d="M911,349.5L920,349.5"></path></g><path id="node_outline38" fill="none" stroke="none" d="M926.5,340.5h110a5,5,0,0,1,5,5v8a5,5,0,0,1,-5,5h-110a5,5,0,0,1,-5,-5v-8a5,5,0,0,1,5,-5z" stroke-width="3"></path><g id="node_text38" fill="black"><text id="kity_text_325" text-rendering="inherit" font-size="12" dy=".8em" y="341.7000000476837" x="926.5">通用的流量测试方法</text></g></g><g id="minder_node39"><g id="node_expander38" style="cursor: pointer;" display="none"><path id="kity_path_336" fill="white" stroke="gray" d="M1057.5,323.5A6,6,0,1,1,1045.5,323.5A6,6,0,1,1,1057.5,323.5"></path><path id="kity_path_337" fill="none" stroke="gray"></path></g><path id="node_outline39" fill="none" stroke="none" d="M1062.5,314.5h62a5,5,0,0,1,5,5v8a5,5,0,0,1,-5,5h-62a5,5,0,0,1,-5,-5v-8a5,5,0,0,1,5,-5z" stroke-width="3"></path><g id="node_text39" fill="black"><text id="kity_text_333" text-rendering="inherit" font-size="12" dy=".8em" y="315.7000000476837" x="1062.5">手机上抓包</text></g></g><g id="minder_node40"><g id="node_expander39" style="cursor: pointer;"><path id="kity_path_344" fill="white" stroke="gray" d="M1057.5,375.5A6,6,0,1,1,1045.5,375.5A6,6,0,1,1,1057.5,375.5"></path><path id="kity_path_345" fill="none" stroke="gray" d="M1047,375.5L1056,375.5"></path></g><path id="node_outline40" fill="none" stroke="none" d="M1062.5,366.5h110a5,5,0,0,1,5,5v8a5,5,0,0,1,-5,5h-110a5,5,0,0,1,-5,-5v-8a5,5,0,0,1,5,-5z" stroke-width="3"></path><g id="node_text40" fill="black"><text id="kity_text_341" text-rendering="inherit" font-size="12" dy=".8em" y="367.7000000476837" x="1062.5">通过网络代理来统计</text></g></g><g id="minder_node41"><g id="node_expander40" style="cursor: pointer;" display="none"><path id="kity_path_352" fill="white" stroke="gray" d="M1193.5,349.5A6,6,0,1,1,1181.5,349.5A6,6,0,1,1,1193.5,349.5"></path><path id="kity_path_353" fill="none" stroke="gray"></path></g><path id="node_outline41" fill="none" stroke="none" d="M1198.5,340.5h401a5,5,0,0,1,5,5v8a5,5,0,0,1,-5,5h-401a5,5,0,0,1,-5,-5v-8a5,5,0,0,1,5,-5z" stroke-width="3"></path><g id="node_text41" fill="black"><text id="kity_text_349" text-rendering="inherit" font-size="12" dy=".8em" y="341.7000000476837" x="1198.5">这种方式会少算一些底层的协议层header的流量。和抓包结果的对比分析，</text></g></g><g id="minder_node42"><g id="node_expander41" style="cursor: pointer;" display="none"><path id="kity_path_360" fill="white" stroke="gray" d="M1193.5,375.5A6,6,0,1,1,1181.5,375.5A6,6,0,1,1,1193.5,375.5"></path><path id="kity_path_361" fill="none" stroke="gray"></path></g><path id="node_outline42" fill="none" stroke="none" d="M1198.5,366.5h410a5,5,0,0,1,5,5v8a5,5,0,0,1,-5,5h-410a5,5,0,0,1,-5,-5v-8a5,5,0,0,1,5,-5z" stroke-width="3"></path><g id="node_text42" fill="black"><text id="kity_text_357" text-rendering="inherit" font-size="12" dy=".8em" y="367.7000000476837" x="1198.5">粗略估算下来，大概少算10%左右。当然，这个也取决于平均包大小的情况，</text></g></g><g id="minder_node43"><g id="node_expander42" style="cursor: pointer;" display="none"><path id="kity_path_368" fill="white" stroke="gray" d="M1193.5,401.5A6,6,0,1,1,1181.5,401.5A6,6,0,1,1,1193.5,401.5"></path><path id="kity_path_369" fill="none" stroke="gray"></path></g><path id="node_outline43" fill="none" stroke="none" d="M1198.5,392.5h305a5,5,0,0,1,5,5v8a5,5,0,0,1,-5,5h-305a5,5,0,0,1,-5,-5v-8a5,5,0,0,1,5,-5z" stroke-width="3"></path><g id="node_text43" fill="black"><text id="kity_text_365" text-rendering="inherit" font-size="12" dy=".8em" y="393.7000000476837" x="1198.5">如果普遍都是小包，那么协议header的占比就会比较高。</text></g></g><g id="minder_node44"><g id="node_expander43" style="cursor: pointer;"><path id="kity_path_376" fill="white" stroke="gray" d="M921.5,557.5A6,6,0,1,1,909.5,557.5A6,6,0,1,1,921.5,557.5"></path><path id="kity_path_377" fill="none" stroke="gray" d="M911,557.5L920,557.5"></path></g><path id="node_outline44" fill="none" stroke="none" d="M926.5,548.5h124a5,5,0,0,1,5,5v8a5,5,0,0,1,-5,5h-124a5,5,0,0,1,-5,-5v-8a5,5,0,0,1,5,-5z" stroke-width="3"></path><g id="node_text44" fill="black"><text id="kity_text_373" text-rendering="inherit" font-size="12" dy=".8em" y="549.7000000476837" x="926.5">常用的节省流量的方法&#xa0;</text></g></g><g id="minder_node45"><g id="node_expander44" style="cursor: pointer;"><path id="kity_path_384" fill="white" stroke="gray" d="M1071.5,453.5A6,6,0,1,1,1059.5,453.5A6,6,0,1,1,1071.5,453.5"></path><path id="kity_path_385" fill="none" stroke="gray" d="M1061,453.5L1070,453.5"></path></g><path id="node_outline45" fill="none" stroke="none" d="M1076.5,444.5h80a5,5,0,0,1,5,5v8a5,5,0,0,1,-5,5h-80a5,5,0,0,1,-5,-5v-8a5,5,0,0,1,5,-5z" stroke-width="3"></path><g id="node_text45" fill="black"><text id="kity_text_381" text-rendering="inherit" font-size="12" dy=".8em" y="445.7000000476837" x="1076.5">1、数据的压缩</text></g></g><g id="minder_node46"><g id="node_expander45" style="cursor: pointer;" display="none"><path id="kity_path_392" fill="white" stroke="gray" d="M1177.5,427.5A6,6,0,1,1,1165.5,427.5A6,6,0,1,1,1177.5,427.5"></path><path id="kity_path_393" fill="none" stroke="gray"></path></g><path id="node_outline46" fill="none" stroke="none" d="M1182.5,418.5h110a5,5,0,0,1,5,5v8a5,5,0,0,1,-5,5h-110a5,5,0,0,1,-5,-5v-8a5,5,0,0,1,5,-5z" stroke-width="3"></path><g id="node_text46" fill="black"><text id="kity_text_389" text-rendering="inherit" font-size="12" dy=".8em" y="419.7000000476837" x="1182.5">接口文本数据的压缩</text></g></g><g id="minder_node47"><g id="node_expander46" style="cursor: pointer;" display="none"><path id="kity_path_400" fill="white" stroke="gray" d="M1177.5,453.5A6,6,0,1,1,1165.5,453.5A6,6,0,1,1,1177.5,453.5"></path><path id="kity_path_401" fill="none" stroke="gray"></path></g><path id="node_outline47" fill="none" stroke="none" d="M1182.5,444.5h74a5,5,0,0,1,5,5v8a5,5,0,0,1,-5,5h-74a5,5,0,0,1,-5,-5v-8a5,5,0,0,1,5,-5z" stroke-width="3"></path><g id="node_text47" fill="black"><text id="kity_text_397" text-rendering="inherit" font-size="12" dy=".8em" y="445.7000000476837" x="1182.5">JS文件的压缩</text></g></g><g id="minder_node48"><g id="node_expander47" style="cursor: pointer;" display="none"><path id="kity_path_408" fill="white" stroke="gray" d="M1177.5,479.5A6,6,0,1,1,1165.5,479.5A6,6,0,1,1,1177.5,479.5"></path><path id="kity_path_409" fill="none" stroke="gray"></path></g><path id="node_outline48" fill="none" stroke="none" d="M1182.5,470.5h61a5,5,0,0,1,5,5v8a5,5,0,0,1,-5,5h-61a5,5,0,0,1,-5,-5v-8a5,5,0,0,1,5,-5z" stroke-width="3"></path><g id="node_text48" fill="black"><text id="kity_text_405" text-rendering="inherit" font-size="12" dy=".8em" y="471.7000000476837" x="1182.5">图片的压缩</text></g></g><g id="minder_node49"><g id="node_expander48" style="cursor: pointer;"><path id="kity_path_416" fill="white" stroke="gray" d="M1071.5,518.5A6,6,0,1,1,1059.5,518.5A6,6,0,1,1,1071.5,518.5"></path><path id="kity_path_417" fill="none" stroke="gray" d="M1061,518.5L1070,518.5"></path></g><path id="node_outline49" fill="none" stroke="none" d="M1076.5,509.5h127a5,5,0,0,1,5,5v8a5,5,0,0,1,-5,5h-127a5,5,0,0,1,-5,-5v-8a5,5,0,0,1,5,-5z" stroke-width="3"></path><g id="node_text49" fill="black"><text id="kity_text_413" text-rendering="inherit" font-size="12" dy=".8em" y="510.7000000476837" x="1076.5">2、不同数据格式的采用</text></g></g><g id="minder_node50"><g id="node_expander49" style="cursor: pointer;" display="none"><path id="kity_path_424" fill="white" stroke="gray" d="M1224.5,505.5A6,6,0,1,1,1212.5,505.5A6,6,0,1,1,1224.5,505.5"></path><path id="kity_path_425" fill="none" stroke="gray"></path></g><path id="node_outline50" fill="none" stroke="none" d="M1229.5,496.5h129a5,5,0,0,1,5,5v8a5,5,0,0,1,-5,5h-129a5,5,0,0,1,-5,-5v-8a5,5,0,0,1,5,-5z" stroke-width="3"></path><g id="node_text50" fill="black"><text id="kity_text_421" text-rendering="inherit" font-size="12" dy=".8em" y="497.7000000476837" x="1229.5">JSON格式作为接口数据</text></g></g><g id="minder_node51"><g id="node_expander50" style="cursor: pointer;" display="none"><path id="kity_path_432" fill="white" stroke="gray" d="M1224.5,531.5A6,6,0,1,1,1212.5,531.5A6,6,0,1,1,1224.5,531.5"></path><path id="kity_path_433" fill="none" stroke="gray"></path></g><path id="node_outline51" fill="none" stroke="none" d="M1229.5,522.5h84a5,5,0,0,1,5,5v8a5,5,0,0,1,-5,5h-84a5,5,0,0,1,-5,-5v-8a5,5,0,0,1,5,-5z" stroke-width="3"></path><g id="node_text51" fill="black"><text id="kity_text_429" text-rendering="inherit" font-size="12" dy=".8em" y="523.7000000476837" x="1229.5">WebP格式图片</text></g></g><g id="minder_node52"><g id="node_expander51" style="cursor: pointer;"><path id="kity_path_440" fill="white" stroke="gray" d="M1071.5,557.5A6,6,0,1,1,1059.5,557.5A6,6,0,1,1,1071.5,557.5"></path><path id="kity_path_441" fill="none" stroke="gray" d="M1061,557.5L1070,557.5"></path></g><path id="node_outline52" fill="none" stroke="none" d="M1076.5,548.5h92a5,5,0,0,1,5,5v8a5,5,0,0,1,-5,5h-92a5,5,0,0,1,-5,-5v-8a5,5,0,0,1,5,-5z" stroke-width="3"></path><g id="node_text52" fill="black"><text id="kity_text_437" text-rendering="inherit" font-size="12" dy=".8em" y="549.7000000476837" x="1076.5">3、控制访问频次</text></g></g><g id="minder_node53"><g id="node_expander52" style="cursor: pointer;" display="none"><path id="kity_path_448" fill="white" stroke="gray" d="M1189.5,557.5A6,6,0,1,1,1177.5,557.5A6,6,0,1,1,1189.5,557.5"></path><path id="kity_path_449" fill="none" stroke="gray"></path></g><path id="node_outline53" fill="none" stroke="none" d="M1194.5,548.5h297a5,5,0,0,1,5,5v8a5,5,0,0,1,-5,5h-297a5,5,0,0,1,-5,-5v-8a5,5,0,0,1,5,-5z" stroke-width="3"></path><g id="node_text53" fill="black"><text id="kity_text_445" text-rendering="inherit" font-size="12" dy=".8em" y="549.7000000476837" x="1194.5">主要是针对后台数据上报，PUSH消息检查等定时机制的</text></g></g><g id="minder_node54"><g id="node_expander53" style="cursor: pointer;"><path id="kity_path_456" fill="white" stroke="gray" d="M1071.5,596.5A6,6,0,1,1,1059.5,596.5A6,6,0,1,1,1071.5,596.5"></path><path id="kity_path_457" fill="none" stroke="gray" d="M1061,596.5L1070,596.5"></path></g><path id="node_outline54" fill="none" stroke="none" d="M1076.5,587.5h117a5,5,0,0,1,5,5v8a5,5,0,0,1,-5,5h-117a5,5,0,0,1,-5,-5v-8a5,5,0,0,1,5,-5z" stroke-width="3"></path><g id="node_text54" fill="black"><text id="kity_text_453" text-rendering="inherit" font-size="12" dy=".8em" y="588.7000000476837" x="1076.5">4、只获取必要的数据</text></g></g><g id="minder_node55"><g id="node_expander54" style="cursor: pointer;" display="none"><path id="kity_path_464" fill="white" stroke="gray" d="M1214.5,583.5A6,6,0,1,1,1202.5,583.5A6,6,0,1,1,1214.5,583.5"></path><path id="kity_path_465" fill="none" stroke="gray"></path></g><path id="node_outline55" fill="none" stroke="none" d="M1219.5,574.5h50a5,5,0,0,1,5,5v8a5,5,0,0,1,-5,5h-50a5,5,0,0,1,-5,-5v-8a5,5,0,0,1,5,-5z" stroke-width="3"></path><g id="node_text55" fill="black"><text id="kity_text_461" text-rendering="inherit" font-size="12" dy=".8em" y="575.7000000476837" x="1219.5">分屏加载</text></g></g><g id="minder_node56"><g id="node_expander55" style="cursor: pointer;" display="none"><path id="kity_path_472" fill="white" stroke="gray" d="M1214.5,609.5A6,6,0,1,1,1202.5,609.5A6,6,0,1,1,1214.5,609.5"></path><path id="kity_path_473" fill="none" stroke="gray"></path></g><path id="node_outline56" fill="none" stroke="none" d="M1219.5,600.5h38a5,5,0,0,1,5,5v8a5,5,0,0,1,-5,5h-38a5,5,0,0,1,-5,-5v-8a5,5,0,0,1,5,-5z" stroke-width="3"></path><g id="node_text56" fill="black"><text id="kity_text_469" text-rendering="inherit" font-size="12" dy=".8em" y="601.7000000476837" x="1219.5">懒加载</text></g></g><g id="minder_node57"><g id="node_expander56" style="cursor: pointer;" display="none"><path id="kity_path_480" fill="white" stroke="gray" d="M1071.5,635.5A6,6,0,1,1,1059.5,635.5A6,6,0,1,1,1071.5,635.5"></path><path id="kity_path_481" fill="none" stroke="gray"></path></g><path id="node_outline57" fill="none" stroke="none" d="M1076.5,626.5h44a5,5,0,0,1,5,5v8a5,5,0,0,1,-5,5h-44a5,5,0,0,1,-5,-5v-8a5,5,0,0,1,5,-5z" stroke-width="3"></path><g id="node_text57" fill="black"><text id="kity_text_477" text-rendering="inherit" font-size="12" dy=".8em" y="627.7000000476837" x="1076.5">5、缓存</text></g></g><g id="minder_node58"><g id="node_expander57" style="cursor: pointer;" display="none"><path id="kity_path_488" fill="white" stroke="gray" d="M1071.5,661.5A6,6,0,1,1,1059.5,661.5A6,6,0,1,1,1071.5,661.5"></path><path id="kity_path_489" fill="none" stroke="gray"></path></g><path id="node_outline58" fill="none" stroke="none" d="M1076.5,652.5h224a5,5,0,0,1,5,5v8a5,5,0,0,1,-5,5h-224a5,5,0,0,1,-5,-5v-8a5,5,0,0,1,5,-5z" stroke-width="3"></path><g id="node_text58" fill="black"><text id="kity_text_485" text-rendering="inherit" font-size="12" dy=".8em" y="653.7000000476837" x="1076.5">6、针对不同网络类型设计不同的访问策略</text></g></g></g></g></svg>