<svg id="kity_svg_6" xmlns="http://www.w3.org/2000/svg" xmlns:xlink="http://www.w3.org/1999/xlink" version="1.1" width="1637" height="636" style="background: rgb(251, 251, 251); visibility: visible;" viewBox="0 0 1637 636"><defs id="kity_defs_7"><linearGradient id="kity_linearGradient_17" x1="0" y1="0" x2="0" y2="1"><stop id="kity_stop_18" offset="0" stop-color="rgb(255, 255, 255)"></stop><stop id="kity_stop_19" offset="1" stop-color="rgb(204, 204, 204)"></stop></linearGradient><marker id="kity_marker_2" orient="auto" refX="6" refY="0" viewBox="-7 -7 14 14" markerWidth="7" markerHeight="7" markerUnits="userSpaceOnUse"><path id="kity_path_3" fill="rgb(115, 191, 118)" stroke="none" d="M6,0A6,6,0,1,1,-6,0A6,6,0,1,1,6,0"></path></marker></defs><g id="kity_g_8"><g id="minder1" text-rendering="optimize-speed"><g id="minder_connect_group1"><path id="kity_path_31" fill="none" stroke="rgb(115, 191, 118)" stroke-width="1" d="M904,391.5A198.5,0,0,0,1,1102.5,391.5"></path><path id="kity_path_39" fill="none" stroke="rgb(115, 191, 118)" stroke-width="1" d="M1312.5,391.5C1327.5,391.5,1327.5,405.5,1342.5,405.5L1495.5,405.5"></path><path id="kity_path_47" fill="none" stroke="rgb(115, 191, 118)" stroke-width="1" d="M1495.5,405.5C1510.5,405.5,1510.5,353.5,1525.5,353.5L1616.5,353.5"></path><path id="kity_path_55" fill="none" stroke="rgb(115, 191, 118)" stroke-width="1" d="M1495.5,405.5C1510.5,405.5,1510.5,405.5,1525.5,405.5L1617.5,405.5"></path><path id="kity_path_63" fill="none" stroke="rgb(115, 191, 118)" stroke-width="1" d="M1495.5,405.5C1510.5,405.5,1510.5,457.5,1525.5,457.5L1616.5,457.5"></path><path id="kity_path_71" fill="none" stroke="rgb(115, 191, 118)" stroke-width="1" d="M904,391.5A198.5,0,0,0,1,705.5,391.5"></path><path id="kity_path_79" fill="none" stroke="rgb(115, 191, 118)" stroke-width="1" d="M619.5,391.5C604.5,391.5,604.5,194.5,589.5,194.5L467.5,194.5"></path><path id="kity_path_87" fill="none" stroke="rgb(115, 191, 118)" stroke-width="1" d="M619.5,391.5C604.5,391.5,604.5,538.5,589.5,538.5L467.5,538.5"></path><path id="kity_path_95" fill="none" stroke="rgb(115, 191, 118)" stroke-width="1" d="M619.5,391.5C604.5,391.5,604.5,616.5,589.5,616.5L479.5,616.5"></path><path id="kity_path_103" fill="none" stroke="rgb(115, 191, 118)" stroke-width="1" d="M467.5,194.5C452.5,194.5,452.5,71.5,437.5,71.5L345.5,71.5"></path><path id="kity_path_111" fill="none" stroke="rgb(115, 191, 118)" stroke-width="1" d="M345.5,71.5C330.5,71.5,330.5,45.5,315.5,45.5L211.5,45.5"></path><path id="kity_path_119" fill="none" stroke="rgb(115, 191, 118)" stroke-width="1" d="M345.5,71.5C330.5,71.5,330.5,97.5,315.5,97.5L211.5,97.5"></path><path id="kity_path_127" fill="none" stroke="rgb(115, 191, 118)" stroke-width="1" d="M467.5,194.5C452.5,194.5,452.5,318.5,437.5,318.5L346.5,318.5"></path><path id="kity_path_135" fill="none" stroke="rgb(115, 191, 118)" stroke-width="1" d="M346.5,318.5C331.5,318.5,331.5,201.5,316.5,201.5L225.5,201.5"></path><path id="kity_path_143" fill="none" stroke="rgb(115, 191, 118)" stroke-width="1" d="M346.5,318.5C331.5,318.5,331.5,331.5,316.5,331.5L224.5,331.5"></path><path id="kity_path_151" fill="none" stroke="rgb(115, 191, 118)" stroke-width="1" d="M346.5,318.5C331.5,318.5,331.5,435.5,316.5,435.5L224.5,435.5"></path><path id="kity_path_159" fill="none" stroke="rgb(115, 191, 118)" stroke-width="1" d="M225.5,201.5C210.5,201.5,210.5,149.5,195.5,149.5L36.5,149.5"></path><path id="kity_path_167" fill="none" stroke="rgb(115, 191, 118)" stroke-width="1" d="M225.5,201.5C210.5,201.5,210.5,201.5,195.5,201.5L20.5,201.5"></path><path id="kity_path_175" fill="none" stroke="rgb(115, 191, 118)" stroke-width="1" d="M225.5,201.5C210.5,201.5,210.5,253.5,195.5,253.5L164.5,253.5"></path><path id="kity_path_183" fill="none" stroke="rgb(115, 191, 118)" stroke-width="1" d="M224.5,331.5C209.5,331.5,209.5,305.5,194.5,305.5L78.5,305.5"></path><path id="kity_path_191" fill="none" stroke="rgb(115, 191, 118)" stroke-width="1" d="M224.5,331.5C209.5,331.5,209.5,357.5,194.5,357.5L91.5,357.5"></path><path id="kity_path_199" fill="none" stroke="rgb(115, 191, 118)" stroke-width="1" d="M224.5,435.5C209.5,435.5,209.5,409.5,194.5,409.5L63.5,409.5"></path><path id="kity_path_207" fill="none" stroke="rgb(115, 191, 118)" stroke-width="1" d="M224.5,435.5C209.5,435.5,209.5,461.5,194.5,461.5L55.5,461.5"></path><path id="kity_path_215" fill="none" stroke="rgb(115, 191, 118)" stroke-width="1" d="M467.5,538.5C452.5,538.5,452.5,512.5,437.5,512.5L346.5,512.5"></path><path id="kity_path_223" fill="none" stroke="rgb(115, 191, 118)" stroke-width="1" d="M467.5,538.5C452.5,538.5,452.5,564.5,437.5,564.5L345.5,564.5"></path><path id="kity_path_231" fill="none" stroke="rgb(115, 191, 118)" stroke-width="1" d="M479.5,616.5C464.5,616.5,464.5,616.5,449.5,616.5L370.5,616.5"></path></g><g id="minder_node1"><path id="node_outline1" fill="rgb(115, 191, 118)" stroke="rgb(115, 191, 118)" d="M828.5,371.5h151a5,5,0,0,1,5,5v30a5,5,0,0,1,-5,5h-151a5,5,0,0,1,-5,-5v-30a5,5,0,0,1,5,-5z" stroke-width="3"></path><g id="node_text1" fill="white"><text id="kity_text_22" text-rendering="inherit" font-size="16" dy=".8em" y="381.09999990463257" x="847.5">APP兼容性测试</text></g></g><g id="kity_g_12"><path id="kity_path_13" fill="none" stroke="none" d="M847.5,391.5h0v0h0z"></path></g><g id="kity_g_14"><path id="kity_path_15" fill="none" stroke="none" d="M847.5,391.5h0v0h0z"></path><path id="kity_path_16" fill="none" stroke="none"></path></g><g id="minder_node2"><g id="node_expander1" style="cursor: pointer;"><path id="kity_path_36" fill="white" stroke="gray" d="M1103.5,391.5A6,6,0,1,1,1091.5,391.5A6,6,0,1,1,1103.5,391.5"></path><path id="kity_path_37" fill="none" stroke="gray" d="M1093,391.5L1102,391.5"></path></g><path id="node_outline2" fill="rgb(238, 246, 238)" stroke="rgb(115, 191, 118)" d="M1107.5,378.5h202a3,3,0,0,1,3,3v20a3,3,0,0,1,-3,3h-202a3,3,0,0,1,-3,-3v-20a3,3,0,0,1,3,-3z" stroke-width="1"></path><g id="node_text2" fill="black"><text id="kity_text_33" text-rendering="inherit" font-size="14" dy=".8em" y="382.40000009536743" x="1124.5">为什么要做兼容性测试呢？</text></g></g><g id="minder_node3"><g id="node_expander2" style="cursor: pointer;"><path id="kity_path_44" fill="white" stroke="gray" d="M1352.5,391.5A6,6,0,1,1,1340.5,391.5A6,6,0,1,1,1352.5,391.5"></path><path id="kity_path_45" fill="none" stroke="gray" d="M1342,391.5L1351,391.5"></path></g><path id="node_outline3" fill="none" stroke="none" d="M1357.5,380.5h133a5,5,0,0,1,5,5v12a5,5,0,0,1,-5,5h-133a5,5,0,0,1,-5,-5v-12a5,5,0,0,1,5,-5z" stroke-width="3"></path><g id="node_text3" fill="black"><text id="kity_text_41" text-rendering="inherit" font-size="12" dy=".8em" y="383.7000000476837" x="1362.5">Android系统免费开源&#xa0;</text></g></g><g id="minder_node4"><g id="node_expander3" style="cursor: pointer;" display="none"><path id="kity_path_52" fill="white" stroke="gray" d="M1535.5,339.5A6,6,0,1,1,1523.5,339.5A6,6,0,1,1,1535.5,339.5"></path><path id="kity_path_53" fill="none" stroke="gray"></path></g><path id="node_outline4" fill="none" stroke="none" d="M1540.5,328.5h71a5,5,0,0,1,5,5v12a5,5,0,0,1,-5,5h-71a5,5,0,0,1,-5,-5v-12a5,5,0,0,1,5,-5z" stroke-width="3"></path><g id="node_text4" fill="black"><text id="kity_text_49" text-rendering="inherit" font-size="12" dy=".8em" y="331.7000000476837" x="1545.5">系统碎片化</text></g></g><g id="minder_node5"><g id="node_expander4" style="cursor: pointer;" display="none"><path id="kity_path_60" fill="white" stroke="gray" d="M1535.5,391.5A6,6,0,1,1,1523.5,391.5A6,6,0,1,1,1535.5,391.5"></path><path id="kity_path_61" fill="none" stroke="gray"></path></g><path id="node_outline5" fill="none" stroke="none" d="M1540.5,380.5h72a5,5,0,0,1,5,5v12a5,5,0,0,1,-5,5h-72a5,5,0,0,1,-5,-5v-12a5,5,0,0,1,5,-5z" stroke-width="3"></path><g id="node_text5" fill="black"><text id="kity_text_57" text-rendering="inherit" font-size="12" dy=".8em" y="383.7000000476837" x="1545.5">屏幕碎片化</text></g></g><g id="minder_node6"><g id="node_expander5" style="cursor: pointer;" display="none"><path id="kity_path_68" fill="white" stroke="gray" d="M1535.5,443.5A6,6,0,1,1,1523.5,443.5A6,6,0,1,1,1535.5,443.5"></path><path id="kity_path_69" fill="none" stroke="gray"></path></g><path id="node_outline6" fill="none" stroke="none" d="M1540.5,432.5h71a5,5,0,0,1,5,5v12a5,5,0,0,1,-5,5h-71a5,5,0,0,1,-5,-5v-12a5,5,0,0,1,5,-5z" stroke-width="3"></path><g id="node_text6" fill="black"><text id="kity_text_65" text-rendering="inherit" font-size="12" dy=".8em" y="435.7000000476837" x="1545.5">品牌碎片化</text></g></g><g id="minder_node7"><g id="node_expander6" style="cursor: pointer;"><path id="kity_path_76" fill="white" stroke="gray" d="M716.5,391.5A6,6,0,1,1,704.5,391.5A6,6,0,1,1,716.5,391.5"></path><path id="kity_path_77" fill="none" stroke="gray" d="M706,391.5L715,391.5"></path></g><path id="node_outline7" fill="rgb(238, 246, 238)" stroke="rgb(115, 191, 118)" d="M622.5,378.5h78a3,3,0,0,1,3,3v20a3,3,0,0,1,-3,3h-78a3,3,0,0,1,-3,-3v-20a3,3,0,0,1,3,-3z" stroke-width="1"></path><g id="node_text7" fill="black"><text id="kity_text_73" text-rendering="inherit" font-size="14" dy=".8em" y="382.40000009536743" x="639.5">怎么做</text></g></g><g id="minder_node8"><g id="node_expander7" style="cursor: pointer;"><path id="kity_path_84" fill="white" stroke="gray" d="M591.5,180.5A6,6,0,1,1,579.5,180.5A6,6,0,1,1,591.5,180.5"></path><path id="kity_path_85" fill="none" stroke="gray" d="M581,180.5L590,180.5"></path></g><path id="node_outline8" fill="none" stroke="none" d="M472.5,169.5h102a5,5,0,0,1,5,5v12a5,5,0,0,1,-5,5h-102a5,5,0,0,1,-5,-5v-12a5,5,0,0,1,5,-5z" stroke-width="3"></path><g id="node_text8" fill="black"><text id="kity_text_81" text-rendering="inherit" font-size="12" dy=".8em" y="172.70000004768372" x="477.5">1、机型怎么选择</text></g></g><g id="minder_node9"><g id="node_expander8" style="cursor: pointer;"><path id="kity_path_92" fill="white" stroke="gray" d="M591.5,524.5A6,6,0,1,1,579.5,524.5A6,6,0,1,1,591.5,524.5"></path><path id="kity_path_93" fill="none" stroke="gray" d="M581,524.5L590,524.5"></path></g><path id="node_outline9" fill="none" stroke="none" d="M472.5,513.5h102a5,5,0,0,1,5,5v12a5,5,0,0,1,-5,5h-102a5,5,0,0,1,-5,-5v-12a5,5,0,0,1,5,-5z" stroke-width="3"></path><g id="node_text9" fill="black"><text id="kity_text_89" text-rendering="inherit" font-size="12" dy=".8em" y="516.7000000476837" x="477.5">2、用例怎么考虑</text></g></g><g id="minder_node10"><g id="node_expander9" style="cursor: pointer;"><path id="kity_path_100" fill="white" stroke="gray" d="M591.5,602.5A6,6,0,1,1,579.5,602.5A6,6,0,1,1,591.5,602.5"></path><path id="kity_path_101" fill="none" stroke="gray" d="M581,602.5L590,602.5"></path></g><path id="node_outline10" fill="none" stroke="none" d="M484.5,591.5h90a5,5,0,0,1,5,5v12a5,5,0,0,1,-5,5h-90a5,5,0,0,1,-5,-5v-12a5,5,0,0,1,5,-5z" stroke-width="3"></path><g id="node_text10" fill="black"><text id="kity_text_97" text-rendering="inherit" font-size="12" dy=".8em" y="594.7000000476837" x="489.5">3、什么时候做</text></g></g><g id="minder_node11"><g id="node_expander10" style="cursor: pointer;"><path id="kity_path_108" fill="white" stroke="gray" d="M439.5,57.5A6,6,0,1,1,427.5,57.5A6,6,0,1,1,439.5,57.5"></path><path id="kity_path_109" fill="none" stroke="gray" d="M429,57.5L438,57.5"></path></g><path id="node_outline11" fill="none" stroke="none" d="M350.5,46.5h72a5,5,0,0,1,5,5v12a5,5,0,0,1,-5,5h-72a5,5,0,0,1,-5,-5v-12a5,5,0,0,1,5,-5z" stroke-width="3"></path><g id="node_text11" fill="black"><text id="kity_text_105" text-rendering="inherit" font-size="12" dy=".8em" y="49.700000047683716" x="355.5">机型选择一</text></g></g><g id="minder_node12"><g id="node_expander11" style="cursor: pointer;" display="none"><path id="kity_path_116" fill="white" stroke="gray" d="M317.5,31.5A6,6,0,1,1,305.5,31.5A6,6,0,1,1,317.5,31.5"></path><path id="kity_path_117" fill="none" stroke="gray"></path></g><path id="node_outline12" fill="none" stroke="none" d="M216.5,20.5h84a5,5,0,0,1,5,5v12a5,5,0,0,1,-5,5h-84a5,5,0,0,1,-5,-5v-12a5,5,0,0,1,5,-5z" stroke-width="3"></path><g id="node_text12" fill="black"><text id="kity_text_113" text-rendering="inherit" font-size="12" dy=".8em" y="23.700000047683716" x="221.5">项目用户统计</text></g></g><g id="minder_node13"><g id="node_expander12" style="cursor: pointer;" display="none"><path id="kity_path_124" fill="white" stroke="gray" d="M317.5,83.5A6,6,0,1,1,305.5,83.5A6,6,0,1,1,317.5,83.5"></path><path id="kity_path_125" fill="none" stroke="gray"></path></g><path id="node_outline13" fill="none" stroke="none" d="M216.5,72.5h84a5,5,0,0,1,5,5v12a5,5,0,0,1,-5,5h-84a5,5,0,0,1,-5,-5v-12a5,5,0,0,1,5,-5z" stroke-width="3"></path><g id="node_text13" fill="black"><text id="kity_text_121" text-rendering="inherit" font-size="12" dy=".8em" y="75.70000004768372" x="221.5">反馈问题统计</text></g></g><g id="minder_node14"><g id="node_expander13" style="cursor: pointer;"><path id="kity_path_132" fill="white" stroke="gray" d="M439.5,304.5A6,6,0,1,1,427.5,304.5A6,6,0,1,1,439.5,304.5"></path><path id="kity_path_133" fill="none" stroke="gray" d="M429,304.5L438,304.5"></path></g><path id="node_outline14" fill="none" stroke="none" d="M351.5,293.5h71a5,5,0,0,1,5,5v12a5,5,0,0,1,-5,5h-71a5,5,0,0,1,-5,-5v-12a5,5,0,0,1,5,-5z" stroke-width="3"></path><g id="node_text14" fill="black"><text id="kity_text_129" text-rendering="inherit" font-size="12" dy=".8em" y="296.7000000476837" x="356.5">机型选择二</text></g></g><g id="minder_node15"><g id="node_expander14" style="cursor: pointer;"><path id="kity_path_140" fill="white" stroke="gray" d="M318.5,187.5A6,6,0,1,1,306.5,187.5A6,6,0,1,1,318.5,187.5"></path><path id="kity_path_141" fill="none" stroke="gray" d="M308,187.5L317,187.5"></path></g><path id="node_outline15" fill="none" stroke="none" d="M230.5,176.5h71a5,5,0,0,1,5,5v12a5,5,0,0,1,-5,5h-71a5,5,0,0,1,-5,-5v-12a5,5,0,0,1,5,-5z" stroke-width="3"></path><g id="node_text15" fill="black"><text id="kity_text_137" text-rendering="inherit" font-size="12" dy=".8em" y="179.70000004768372" x="235.5">系统兼容性</text></g></g><g id="minder_node16"><g id="node_expander15" style="cursor: pointer;"><path id="kity_path_148" fill="white" stroke="gray" d="M318.5,317.5A6,6,0,1,1,306.5,317.5A6,6,0,1,1,318.5,317.5"></path><path id="kity_path_149" fill="none" stroke="gray" d="M308,317.5L317,317.5"></path></g><path id="node_outline16" fill="none" stroke="none" d="M229.5,306.5h72a5,5,0,0,1,5,5v12a5,5,0,0,1,-5,5h-72a5,5,0,0,1,-5,-5v-12a5,5,0,0,1,5,-5z" stroke-width="3"></path><g id="node_text16" fill="black"><text id="kity_text_145" text-rendering="inherit" font-size="12" dy=".8em" y="309.7000000476837" x="234.5">屏幕兼容性</text></g></g><g id="minder_node17"><g id="node_expander16" style="cursor: pointer;"><path id="kity_path_156" fill="white" stroke="gray" d="M318.5,421.5A6,6,0,1,1,306.5,421.5A6,6,0,1,1,318.5,421.5"></path><path id="kity_path_157" fill="none" stroke="gray" d="M308,421.5L317,421.5"></path></g><path id="node_outline17" fill="none" stroke="none" d="M229.5,410.5h72a5,5,0,0,1,5,5v12a5,5,0,0,1,-5,5h-72a5,5,0,0,1,-5,-5v-12a5,5,0,0,1,5,-5z" stroke-width="3"></path><g id="node_text17" fill="black"><text id="kity_text_153" text-rendering="inherit" font-size="12" dy=".8em" y="413.7000000476837" x="234.5">型号兼容性</text></g></g><g id="minder_node18"><g id="node_expander17" style="cursor: pointer;" display="none"><path id="kity_path_164" fill="white" stroke="gray" d="M197.5,135.5A6,6,0,1,1,185.5,135.5A6,6,0,1,1,197.5,135.5"></path><path id="kity_path_165" fill="none" stroke="gray"></path></g><path id="node_outline18" fill="none" stroke="none" d="M41.5,124.5h139a5,5,0,0,1,5,5v12a5,5,0,0,1,-5,5h-139a5,5,0,0,1,-5,-5v-12a5,5,0,0,1,5,-5z" stroke-width="3"></path><g id="node_text18" fill="black"><text id="kity_text_161" text-rendering="inherit" font-size="12" dy=".8em" y="127.70000004768372" x="46.5">紧跟IOS新版本操作系统</text></g></g><g id="minder_node19"><g id="node_expander18" style="cursor: pointer;" display="none"><path id="kity_path_172" fill="white" stroke="gray" d="M197.5,187.5A6,6,0,1,1,185.5,187.5A6,6,0,1,1,197.5,187.5"></path><path id="kity_path_173" fill="none" stroke="gray"></path></g><path id="node_outline19" fill="none" stroke="none" d="M25.5,176.5h155a5,5,0,0,1,5,5v12a5,5,0,0,1,-5,5h-155a5,5,0,0,1,-5,-5v-12a5,5,0,0,1,5,-5z" stroke-width="3"></path><g id="node_text19" fill="black"><text id="kity_text_169" text-rendering="inherit" font-size="12" dy=".8em" y="179.70000004768372" x="30.5">优先测试Android主流系统</text></g></g><g id="minder_node20"><g id="node_expander19" style="cursor: pointer;" display="none"><path id="kity_path_180" fill="white" stroke="gray" d="M197.5,239.5A6,6,0,1,1,185.5,239.5A6,6,0,1,1,197.5,239.5"></path><path id="kity_path_181" fill="none" stroke="gray"></path></g><path id="node_outline20" fill="none" stroke="none" d="M169.5,228.5h11a5,5,0,0,1,5,5v12a5,5,0,0,1,-5,5h-11a5,5,0,0,1,-5,-5v-12a5,5,0,0,1,5,-5z" stroke-width="3"></path><g id="node_text20" fill="black"><text id="kity_text_177" text-rendering="inherit" font-size="12" dy=".8em" y="231.70000004768372" x="174.5"> </text></g></g><g id="minder_node21"><g id="node_expander20" style="cursor: pointer;" display="none"><path id="kity_path_188" fill="white" stroke="gray" d="M196.5,291.5A6,6,0,1,1,184.5,291.5A6,6,0,1,1,196.5,291.5"></path><path id="kity_path_189" fill="none" stroke="gray"></path></g><path id="node_outline21" fill="none" stroke="none" d="M83.5,280.5h96a5,5,0,0,1,5,5v12a5,5,0,0,1,-5,5h-96a5,5,0,0,1,-5,-5v-12a5,5,0,0,1,5,-5z" stroke-width="3"></path><g id="node_text21" fill="black"><text id="kity_text_185" text-rendering="inherit" font-size="12" dy=".8em" y="283.7000000476837" x="88.5">优先主流分辨率</text></g></g><g id="minder_node22"><g id="node_expander21" style="cursor: pointer;" display="none"><path id="kity_path_196" fill="white" stroke="gray" d="M196.5,343.5A6,6,0,1,1,184.5,343.5A6,6,0,1,1,196.5,343.5"></path><path id="kity_path_197" fill="none" stroke="gray"></path></g><path id="node_outline22" fill="none" stroke="none" d="M96.5,332.5h83a5,5,0,0,1,5,5v12a5,5,0,0,1,-5,5h-83a5,5,0,0,1,-5,-5v-12a5,5,0,0,1,5,-5z" stroke-width="3"></path><g id="node_text22" fill="black"><text id="kity_text_193" text-rendering="inherit" font-size="12" dy=".8em" y="335.7000000476837" x="101.5">考虑不同尺寸</text></g></g><g id="minder_node23"><g id="node_expander22" style="cursor: pointer;" display="none"><path id="kity_path_204" fill="white" stroke="gray" d="M196.5,395.5A6,6,0,1,1,184.5,395.5A6,6,0,1,1,196.5,395.5"></path><path id="kity_path_205" fill="none" stroke="gray"></path></g><path id="node_outline23" fill="none" stroke="none" d="M68.5,384.5h111a5,5,0,0,1,5,5v12a5,5,0,0,1,-5,5h-111a5,5,0,0,1,-5,-5v-12a5,5,0,0,1,5,-5z" stroke-width="3"></path><g id="node_text23" fill="black"><text id="kity_text_201" text-rendering="inherit" font-size="12" dy=".8em" y="387.7000000476837" x="73.5">优先测试主流品牌&#xa0;</text></g></g><g id="minder_node24"><g id="node_expander23" style="cursor: pointer;" display="none"><path id="kity_path_212" fill="white" stroke="gray" d="M196.5,447.5A6,6,0,1,1,184.5,447.5A6,6,0,1,1,196.5,447.5"></path><path id="kity_path_213" fill="none" stroke="gray"></path></g><path id="node_outline24" fill="none" stroke="none" d="M60.5,436.5h119a5,5,0,0,1,5,5v12a5,5,0,0,1,-5,5h-119a5,5,0,0,1,-5,-5v-12a5,5,0,0,1,5,-5z" stroke-width="3"></path><g id="node_text24" fill="black"><text id="kity_text_209" text-rendering="inherit" font-size="12" dy=".8em" y="439.7000000476837" x="65.5">考虑品牌的主流系列</text></g></g><g id="minder_node25"><g id="node_expander24" style="cursor: pointer;" display="none"><path id="kity_path_220" fill="white" stroke="gray" d="M439.5,498.5A6,6,0,1,1,427.5,498.5A6,6,0,1,1,439.5,498.5"></path><path id="kity_path_221" fill="none" stroke="gray"></path></g><path id="node_outline25" fill="none" stroke="none" d="M351.5,487.5h71a5,5,0,0,1,5,5v12a5,5,0,0,1,-5,5h-71a5,5,0,0,1,-5,-5v-12a5,5,0,0,1,5,-5z" stroke-width="3"></path><g id="node_text25" fill="black"><text id="kity_text_217" text-rendering="inherit" font-size="12" dy=".8em" y="490.7000000476837" x="356.5">主流程覆盖</text></g></g><g id="minder_node26"><g id="node_expander25" style="cursor: pointer;" display="none"><path id="kity_path_228" fill="white" stroke="gray" d="M439.5,550.5A6,6,0,1,1,427.5,550.5A6,6,0,1,1,439.5,550.5"></path><path id="kity_path_229" fill="none" stroke="gray"></path></g><path id="node_outline26" fill="none" stroke="none" d="M350.5,539.5h72a5,5,0,0,1,5,5v12a5,5,0,0,1,-5,5h-72a5,5,0,0,1,-5,-5v-12a5,5,0,0,1,5,-5z" stroke-width="3"></path><g id="node_text26" fill="black"><text id="kity_text_225" text-rendering="inherit" font-size="12" dy=".8em" y="542.7000000476837" x="355.5">页面UI校验</text></g></g><g id="minder_node27"><g id="node_expander26" style="cursor: pointer;" display="none"><path id="kity_path_236" fill="white" stroke="gray" d="M451.5,602.5A6,6,0,1,1,439.5,602.5A6,6,0,1,1,451.5,602.5"></path><path id="kity_path_237" fill="none" stroke="gray"></path></g><path id="node_outline27" fill="none" stroke="none" d="M375.5,591.5h59a5,5,0,0,1,5,5v12a5,5,0,0,1,-5,5h-59a5,5,0,0,1,-5,-5v-12a5,5,0,0,1,5,-5z" stroke-width="3"></path><g id="node_text27" fill="black"><text id="kity_text_233" text-rendering="inherit" font-size="12" dy=".8em" y="594.7000000476837" x="380.5">回归测试</text></g></g></g></g></svg>